Coordinates
version=1
nRows=17
nColumns=24
inDegrees=yes

Units are S.I. units (second, meters, Newtons, ...)
Angles are in degrees.

endheader
time	pelvis_tilt	pelvis_list	pelvis_rotation	pelvis_tx	pelvis_ty	pelvis_tz	hip_flexion_r	hip_adduction_r	hip_rotation_r	knee_angle_r	ankle_angle_r	subtalar_angle_r	mtp_angle_r	hip_flexion_l	hip_adduction_l	hip_rotation_l	knee_angle_l	ankle_angle_l	subtalar_angle_l	mtp_angle_l	lumbar_extension	lumbar_bending	lumbar_rotation
      0.63000000	      0.24837886	      5.83870147	      5.77596516	     -0.81686254	      0.96731998	      0.31144159	     28.24883962	     -5.62891900	     -4.80654175	     -7.28178420	     12.09617758	     -5.34614598	      5.41665738	    -21.17086946	      8.11580362	      7.33651094	     -7.85371640	      8.18879228	     -2.97056601	      6.99968897	      0.18081817	     -3.55370037	     -4.34942324
      0.63416667	      0.16642362	      5.76076294	      5.82712279	     -0.81068734	      0.96655016	      0.31165591	     28.36688526	     -5.51385756	     -4.65652952	     -7.70621721	     12.07057693	     -5.67454060	      5.44217008	    -21.31456831	      7.96456508	      7.25149752	     -8.07497213	      7.97226919	     -2.85062576	      7.05177440	      0.33250916	     -3.45760098	     -4.28865785
      0.63833333	      0.10114204	      5.66569511	      5.88720871	     -0.80443448	      0.96582210	      0.31186125	     28.46260178	     -5.38921102	     -4.56735562	     -8.16862886	     12.01164336	     -5.86281688	      5.45599260	    -21.47205109	      7.78643781	      7.15167020	     -8.30034187	      7.70678856	     -2.68417229	      7.10047287	      0.47511814	     -3.33846633	     -4.32997913
      0.64250000	     -0.01410482	      5.56342914	      5.94300263	     -0.79817641	      0.96503926	      0.31212550	     28.60975080	     -5.24482612	     -4.37572759	     -8.66071980	     11.87249532	     -6.30795395	      5.49626466	    -21.52013552	      7.60423971	      6.96014758	     -8.63315946	      7.55952178	     -2.38202499	      7.28634791	      0.67265763	     -3.22908044	     -4.35663625
      0.64666667	     -0.05476949	      5.46302604	      5.99128131	     -0.79184805	      0.96436115	      0.31233743	     28.69995852	     -5.11442838	     -4.33285104	     -9.23552106	     11.71862089	     -6.44668172	      5.50063135	    -21.69700421	      7.42433798	      6.89644586	     -8.86944914	      7.25991155	     -2.31358574	      7.31873943	      0.78457485	     -3.10920250	     -4.37574851
      0.65083333	     -0.22932856	      5.33766080	      6.01768724	     -0.78549844	      0.96353977	      0.31267265	     28.89330209	     -4.92110277	     -4.00700995	     -9.74860090	     11.51373603	     -7.04814948	      5.55913940	    -21.65359293	      7.23311877	      6.65260125	     -9.24701616	      7.03384393	     -1.99009374	      7.63284136	      1.07421819	     -2.96869123	     -4.36300880
      0.65500000	     -0.35063530	      5.20317809	      6.03503884	     -0.77908073	      0.96281227	      0.31299187	     29.03656391	     -4.72098170	     -3.76719850	    -10.30305099	     11.24393469	     -7.53114591	      5.63990681	    -21.69261643	      7.03238197	      6.47287197	     -9.56228764	      6.71227624	     -1.81107440	      8.08887793	      1.30131861	     -2.81535274	     -4.36965125
      0.65916667	     -0.37943483	      5.05838972	      6.04044854	     -0.77264474	      0.96221037	      0.31334678	     29.07073113	     -4.49439553	     -3.51264193	    -10.86250943	     10.96479806	     -8.14554049	      6.09424203	    -21.83464198	      6.80664113	      6.28406951	     -9.85898220	      6.30510144	     -1.61005480	     10.61149332	      1.41301334	     -2.64553518	     -4.50198254
      0.66333333	     -0.53954582	      4.92375769	      6.05488875	     -0.76612368	      0.96147709	      0.31363413	     29.28791116	     -4.31511856	     -3.42620681	    -11.52495148	     10.67398787	     -8.21429111	      6.10786788	    -21.82197594	      6.61921309	      6.16231803	    -10.19246266	      5.85369512	     -1.55074758	     10.70513881	      1.70220048	     -2.49177571	     -4.38159884
      0.66750000	     -0.73251498	      4.78209897	      6.05740652	     -0.75964644	      0.96071899	      0.31400319	     29.52932825	     -4.10341812	     -3.19038737	    -12.17857603	     10.33659046	     -8.70569107	      6.15072360	    -21.72341122	      6.42710437	      5.96534513	    -10.61820221	      5.50618650	     -1.39889402	     10.99590995	      2.01951752	     -2.33934099	     -4.28795093
      0.67166667	     -0.77503935	      4.60529525	      6.00640679	     -0.75308991	      0.96016973	      0.31445507	     29.58701953	     -3.81440521	     -2.90605117	    -12.79789154	     10.01679560	     -9.36913369	      6.49275406	    -21.81029781	      6.18784240	      5.69187782	    -10.96498381	      5.00969715	     -1.19743166	     13.34201217	      2.16954169	     -2.12792448	     -4.42712605
      0.67583333	     -1.01497989	      4.45560377	      6.07661876	     -0.74649241	      0.95949884	      0.31481961	     29.85376095	     -3.63866491	     -2.85061495	    -13.45017002	      9.59448000	     -9.50069488	      6.49900883	    -21.64237858	      5.96653170	      5.62986319	    -11.40680474	      4.45337599	     -1.13275727	     13.43656399	      2.56341533	     -1.98069905	     -4.32936706
      0.68000000	     -1.17890405	      4.31608767	      6.02733889	     -0.74006291	      0.95884761	      0.31530461	     30.09091626	     -3.40060034	     -2.59393958	    -14.17227565	      9.23133230	    -10.05119268	      6.52650063	    -21.51146093	      5.79076775	      5.40113356	    -11.92029475	      4.01005341	     -1.01659783	     13.73964430	      2.83459754	     -1.83774865	     -4.22035175
      0.68416667	     -1.28776614	      4.12982227	      5.99120622	     -0.73352040	      0.95835003	      0.31580836	     30.22827427	     -3.11659809	     -2.38928928	    -14.83813274	      8.87226562	    -10.61734036	      6.58268414	    -21.44780536	      5.54604334	      5.17543003	    -12.39455136	      3.44177565	     -0.83659407	     14.42578319	      3.05878140	     -1.63690059	     -4.15674079
      0.68833333	     -1.35653047	      3.96437860	      5.91488543	     -0.72693690	      0.95790275	      0.31627349	     30.35987453	     -2.86194831	     -2.29588246	    -15.57541921	      8.53397831	    -10.68722948	      6.58852951	    -21.43877551	      5.34525436	      4.97682814	    -12.84483933	      2.78665865	     -0.82944001	     14.54193476	      3.23686831	     -1.42846991	     -4.16178324
      0.69250000	     -1.54008977	      3.78388813	      5.87471095	     -0.72041032	      0.95737405	      0.31681610	     30.59394810	     -2.58911811	     -2.09977669	    -16.28799555	      8.17500287	    -11.31720094	      6.63077801	    -21.22059911	      5.11734704	      4.73615366	    -13.45500517	      2.22821261	     -0.64308458	     15.30040571	      3.55870297	     -1.23396160	     -4.03224163
      0.69666667	     -1.60845169	      3.59484404	      5.79273918	     -0.71381520	      0.95703125	      0.31737807	     30.69982623	     -2.30017141	     -1.98884735	    -16.98683815	      7.81479119	    -11.49613468	      6.88352769	    -21.13759737	      4.87985570	      4.44428538	    -14.00810464	      1.44276184	     -0.63818095	     20.73031376	      3.72714659	     -1.02157263	     -4.03029211
